<svg xmlns="http://www.w3.org/2000/svg" width="16.118" height="29.812" viewBox="0 0 16.118 29.812">
  <g id="Grupo_20" data-name="Grupo 20" transform="translate(-1106.449 -2027.123)">
    <g id="facebook-logo" transform="translate(1106.449 2027.123)">
      <path id="Trazado_17" data-name="Trazado 17" d="M37.588.006,33.722,0c-4.343,0-7.15,2.88-7.15,7.337V10.72H22.685a.608.608,0,0,0-.608.608v4.9a.608.608,0,0,0,.608.608h3.887V29.2a.608.608,0,0,0,.608.608h5.072a.608.608,0,0,0,.608-.608V16.837H37.4a.608.608,0,0,0,.608-.608l0-4.9a.608.608,0,0,0-.608-.608H32.859V7.852c0-1.378.328-2.078,2.124-2.078h2.6a.608.608,0,0,0,.608-.608V.614A.608.608,0,0,0,37.588.006Z" transform="translate(-22.077)" fill="#fff"/>
    </g>
  </g>
</svg>
