<svg id="instagram" xmlns="http://www.w3.org/2000/svg" width="36" height="36" viewBox="0 0 36 36">
  <g id="Grupo_14" data-name="Grupo 14">
    <g id="Grupo_13" data-name="Grupo 13">
      <path id="Trazado_15" data-name="Trazado 15" d="M24.75,0H11.25A11.251,11.251,0,0,0,0,11.25v13.5A11.251,11.251,0,0,0,11.25,36h13.5A11.251,11.251,0,0,0,36,24.75V11.25A11.251,11.251,0,0,0,24.75,0Zm7.875,24.75a7.884,7.884,0,0,1-7.875,7.875H11.25A7.884,7.884,0,0,1,3.375,24.75V11.25A7.884,7.884,0,0,1,11.25,3.375h13.5a7.884,7.884,0,0,1,7.875,7.875Z" fill="#fff"/>
    </g>
  </g>
  <g id="Grupo_16" data-name="Grupo 16" transform="translate(9 9)">
    <g id="Grupo_15" data-name="Grupo 15">
      <path id="Trazado_16" data-name="Trazado 16" d="M137,128a9,9,0,1,0,9,9A9,9,0,0,0,137,128Zm0,14.625A5.625,5.625,0,1,1,142.625,137,5.633,5.633,0,0,1,137,142.625Z" transform="translate(-128 -128)" fill="#fff"/>
    </g>
  </g>
  <g id="Grupo_18" data-name="Grupo 18" transform="translate(26.476 7.126)">
    <g id="Grupo_17" data-name="Grupo 17">
      <circle id="Elipse_3" data-name="Elipse 3" cx="1.199" cy="1.199" r="1.199" fill="#fff"/>
    </g>
  </g>
</svg>
