<svg xmlns="http://www.w3.org/2000/svg" width="32.924" height="26.744" viewBox="0 0 32.924 26.744">
  <g id="Grupo_21" data-name="Grupo 21" transform="translate(-1171.791 -2028.643)">
    <g id="twitter-logo-silhouette" transform="translate(1171.792 2028.643)">
      <g id="Grupo_19" data-name="Grupo 19" transform="translate(0 0)">
        <path id="Trazado_18" data-name="Trazado 18" d="M32.925,60.605a13.487,13.487,0,0,1-3.878,1.064,6.782,6.782,0,0,0,2.969-3.734,13.616,13.616,0,0,1-4.292,1.64,6.759,6.759,0,0,0-11.509,6.158,19.175,19.175,0,0,1-13.92-7.057,6.762,6.762,0,0,0,2.09,9.015,6.754,6.754,0,0,1-3.059-.848v.084A6.761,6.761,0,0,0,6.743,73.55a6.841,6.841,0,0,1-1.78.237,6.484,6.484,0,0,1-1.271-.126A6.758,6.758,0,0,0,10,78.352a13.551,13.551,0,0,1-8.388,2.886A14.352,14.352,0,0,1,0,81.146a19.091,19.091,0,0,0,10.353,3.039c12.424,0,19.216-10.291,19.216-19.216l-.023-.874A13.487,13.487,0,0,0,32.925,60.605Z" transform="translate(-0.001 -57.441)" fill="#fff"/>
      </g>
    </g>
  </g>
</svg>
